<svg width="15" height="15" viewBox="0 0 15 15" xmlns="http://www.w3.org/2000/svg"><title>Imported Layers Copy</title><path d="M13.398 7.412c0-.924.57-1.654 1.426-2.155-.155-.516-.36-1.01-.61-1.476-.962.253-1.74-.124-2.393-.777-.653-.654-.853-1.432-.6-2.393-.466-.25-.96-.456-1.477-.61-.5.857-1.407 1.426-2.33 1.426-.926 0-1.83-.57-2.333-1.426-.516.154-1.01.36-1.475.61.25.96.05 1.74-.603 2.393-.653.653-1.43 1.03-2.392.778-.25.466-.456.96-.61 1.477.857.5 1.426 1.23 1.426 2.155 0 .924-.57 1.83-1.426 2.33.154.517.36 1.012.61 1.477.96-.253 1.74-.053 2.392.6.654.655.854 1.433.603 2.393.465.252.96.456 1.475.61.502-.856 1.407-1.425 2.332-1.425.924 0 1.83.57 2.33 1.426.517-.155 1.012-.36 1.477-.61-.252-.96-.053-1.74.6-2.393.655-.653 1.432-1.03 2.393-.778.252-.465.456-.96.61-1.475-.856-.502-1.425-1.23-1.425-2.155zm-5.986 3.223c-1.78 0-3.223-1.443-3.223-3.223 0-1.78 1.442-3.223 3.222-3.223s3.223 1.442 3.223 3.222-1.443 3.223-3.223 3.223z" fill="#FFF" fill-rule="evenodd"/></svg>