<svg width="15" height="17" viewBox="0 0 15 17" xmlns="http://www.w3.org/2000/svg"><title>share</title><path d="M12.037 11.11c-.636 0-1.22.217-1.69.577l-4.832-2.9c.025-.147.04-.298.04-.454 0-.155-.015-.306-.04-.454l4.833-2.9c.468.36 1.053.576 1.69.576 1.533 0 2.777-1.244 2.777-2.778S13.57 0 12.037 0 9.26 1.244 9.26 2.778c0 .155.015.306.04.454l-4.833 2.9c-.468-.36-1.053-.576-1.69-.576C1.245 5.556 0 6.8 0 8.333s1.244 2.778 2.778 2.778c.636 0 1.22-.215 1.69-.575l4.83 2.9c-.023.148-.04.3-.04.454 0 1.533 1.245 2.777 2.78 2.777 1.533 0 2.777-1.244 2.777-2.778 0-1.535-1.244-2.78-2.778-2.78" fill="#B9BFC4" fill-rule="evenodd"/></svg>