<svg width="19" height="19" viewBox="0 0 19 19" xmlns="http://www.w3.org/2000/svg"><title>Star 69</title><path d="M9.5 17.882l-1.975.91-1.434-1.635-2.174.03-.645-2.078-1.997-.86.255-2.16-1.476-1.597 1.112-1.87-.7-2.06L2.242 5.31l.2-2.167 2.133-.424L5.636.82l2.12.48L9.5 0l1.743 1.3 2.12-.48 1.064 1.9 2.133.423.2 2.166 1.775 1.254-.7 2.06 1.113 1.87-1.476 1.596.255 2.16-1.998.86-.646 2.076-2.175-.03-1.435 1.636-1.975-.91zm-1.06-7.114L6.317 8.646 4.904 10.06l2.828 2.83.707.706 5.656-5.657-1.414-1.415-4.243 4.243z" fill="#65B60D" fill-rule="evenodd"/></svg>